<svg xmlns="http://www.w3.org/2000/svg" xmlns:osb="http://www.openswatchbook.org/uri/2009/osb" xmlns:svg="http://www.w3.org/2000/svg" id="svg7384" width="16" height="16" version="1.1"><metadata id="metadata90"/><title id="title9167">Gnome Symbolic Icon Theme</title><defs id="defs7386"><linearGradient id="linearGradient7212" osb:paint="solid"><stop id="stop7214" offset="0" style="stop-color:#000;stop-opacity:1"/></linearGradient></defs><g id="layer9" transform="translate(-323.00022,104.99999)" style="display:inline"><g style="display:inline;enable-background:new" id="g5014" transform="translate(163.00022,-276.96874)"><g id="text1068-5" aria-label="3" transform="matrix(0.22146631,0,0,0.22146631,149.30963,131.89229)" style="font-style:normal;font-variant:normal;font-weight:700;font-stretch:normal;font-size:19.4494381px;line-height:1.25;font-family:Montserrat;-inkscape-font-specification:'Montserrat, Bold';font-variant-ligatures:normal;font-variant-caps:normal;font-variant-numeric:normal;font-feature-settings:normal;text-align:start;letter-spacing:0;word-spacing:0;writing-mode:lr-tb;text-anchor:start;display:inline;fill:#000;fill-opacity:1;stroke:none;stroke-width:4.22569895;enable-background:new"><path id="path1105-1" d="m 101.97128,231.69508 3.07301,-3.50089 v -2.0422 h -9.530226 v 2.52843 H 101.31 l -2.800722,3.17026 v 2.08109 h 1.439258 c 1.789344,0 2.547874,0.64183 2.547874,1.67265 0,1.10862 -0.97247,1.75045 -2.547874,1.75045 -1.419809,0 -2.859067,-0.44734 -3.889888,-1.22531 l -1.225314,2.41173 c 1.322562,0.93357 3.286955,1.4587 5.192996,1.4587 3.87044,0 5.64034,-2.10053 5.64034,-4.39557 0,-2.00329 -1.24476,-3.52035 -3.69539,-3.90934 z" style="fill:#000;fill-opacity:1;stroke-width:4.22569895"/></g><g id="text1084-4" aria-label="1" transform="matrix(0.22035139,0,0,0.22035139,150.48707,132.82431)" style="font-style:normal;font-variant:normal;font-weight:700;font-stretch:normal;font-size:19.4494381px;line-height:1.25;font-family:Montserrat;-inkscape-font-specification:'Montserrat, Bold';font-variant-ligatures:normal;font-variant-caps:normal;font-variant-numeric:normal;font-feature-settings:normal;text-align:start;letter-spacing:0;word-spacing:0;writing-mode:lr-tb;text-anchor:start;display:inline;fill:#000;fill-opacity:1;stroke:none;stroke-width:4.24707985;enable-background:new"><path id="path1093-6" d="m 59.988929,191.40199 v 2.52843 h 2.722922 v 11.08618 h 3.150809 v -13.61461 z" style="fill:#000;fill-opacity:1;stroke-width:4.24707985"/></g><path id="rect4988" d="m 162.0957,172.99805 c -0.59934,0 -1.10937,0.48912 -1.10937,1.09375 v 4.81054 c 0,0.60463 0.51003,1.09571 1.10937,1.09571 h 4.78125 c 0.59934,0 1.10938,-0.49108 1.10938,-1.09571 v -4.81054 c 0,-0.60463 -0.51004,-1.09375 -1.10938,-1.09375 z m 0,1 h 4.78125 c 0.0764,0 0.10938,0.04 0.10938,0.0937 v 4.81054 c 0,0.0538 -0.033,0.0957 -0.10938,0.0957 h -4.78125 c -0.0764,0 -0.10937,-0.0419 -0.10937,-0.0957 v -4.81054 c 0,-0.0538 0.0329,-0.0937 0.10937,-0.0937 z" style="color:#000;font-style:normal;font-variant:normal;font-weight:400;font-stretch:normal;font-size:medium;line-height:normal;font-family:sans-serif;font-variant-ligatures:normal;font-variant-position:normal;font-variant-caps:normal;font-variant-numeric:normal;font-variant-alternates:normal;font-feature-settings:normal;text-indent:0;text-align:start;text-decoration:none;text-decoration-line:none;text-decoration-style:solid;text-decoration-color:#000;letter-spacing:normal;word-spacing:normal;text-transform:none;writing-mode:lr-tb;direction:ltr;text-orientation:mixed;dominant-baseline:auto;baseline-shift:baseline;text-anchor:start;white-space:normal;shape-padding:0;clip-rule:nonzero;display:inline;overflow:visible;visibility:visible;opacity:1;isolation:auto;mix-blend-mode:normal;color-interpolation:sRGB;color-interpolation-filters:linearRGB;solid-color:#000;solid-opacity:1;vector-effect:none;fill:#000;fill-opacity:1;fill-rule:nonzero;stroke:none;stroke-width:1;stroke-linecap:butt;stroke-linejoin:miter;stroke-miterlimit:4;stroke-dasharray:none;stroke-dashoffset:0;stroke-opacity:1;marker:none;paint-order:normal;color-rendering:auto;image-rendering:auto;shape-rendering:auto;text-rendering:auto;enable-background:accumulate"/><g style="font-style:normal;font-variant:normal;font-weight:700;font-stretch:normal;font-size:19.4494381px;line-height:1.25;font-family:Montserrat;-inkscape-font-specification:'Montserrat, Bold';font-variant-ligatures:normal;font-variant-caps:normal;font-variant-numeric:normal;font-feature-settings:normal;text-align:start;letter-spacing:0;word-spacing:0;writing-mode:lr-tb;text-anchor:start;display:inline;fill:#000;fill-opacity:1;stroke:none;stroke-width:4.24707985;enable-background:new" id="g4992" aria-label="1" transform="matrix(0.22035139,0,0,0.22035139,157.48707,132.82431)"><path style="fill:#000;fill-opacity:1;stroke-width:4.24707985" id="path4990" d="m 59.988929,191.40199 v 2.52843 h 2.722922 v 11.08618 h 3.150809 v -13.61461 z"/></g><path id="rect4994" d="m 169.07812,179.99414 c -0.59934,0 -1.10937,0.48912 -1.10937,1.09375 v 4.81055 c 0,0.60463 0.51003,1.0957 1.10937,1.0957 h 4.7793 c 0.59934,0 1.11133,-0.49107 1.11133,-1.0957 v -4.81055 c 0,-0.60463 -0.51199,-1.09375 -1.11133,-1.09375 z m 0,1 h 4.7793 c 0.0764,0 0.11133,0.04 0.11133,0.0937 v 4.81055 c 0,0.0538 -0.0349,0.0957 -0.11133,0.0957 h -4.7793 c -0.0764,0 -0.10937,-0.0419 -0.10937,-0.0957 v -4.81055 c 0,-0.0538 0.0329,-0.0937 0.10937,-0.0937 z" style="color:#000;font-style:normal;font-variant:normal;font-weight:400;font-stretch:normal;font-size:medium;line-height:normal;font-family:sans-serif;font-variant-ligatures:normal;font-variant-position:normal;font-variant-caps:normal;font-variant-numeric:normal;font-variant-alternates:normal;font-feature-settings:normal;text-indent:0;text-align:start;text-decoration:none;text-decoration-line:none;text-decoration-style:solid;text-decoration-color:#000;letter-spacing:normal;word-spacing:normal;text-transform:none;writing-mode:lr-tb;direction:ltr;text-orientation:mixed;dominant-baseline:auto;baseline-shift:baseline;text-anchor:start;white-space:normal;shape-padding:0;clip-rule:nonzero;display:inline;overflow:visible;visibility:visible;opacity:1;isolation:auto;mix-blend-mode:normal;color-interpolation:sRGB;color-interpolation-filters:linearRGB;solid-color:#000;solid-opacity:1;vector-effect:none;fill:#000;fill-opacity:1;fill-rule:nonzero;stroke:none;stroke-width:1;stroke-linecap:butt;stroke-linejoin:miter;stroke-miterlimit:4;stroke-dasharray:none;stroke-dashoffset:0;stroke-opacity:1;marker:none;paint-order:normal;color-rendering:auto;image-rendering:auto;shape-rendering:auto;text-rendering:auto;enable-background:accumulate"/><g style="font-style:normal;font-variant:normal;font-weight:700;font-stretch:normal;font-size:19.4494381px;line-height:1.25;font-family:Montserrat;-inkscape-font-specification:'Montserrat, Bold';font-variant-ligatures:normal;font-variant-caps:normal;font-variant-numeric:normal;font-feature-settings:normal;text-align:start;letter-spacing:0;word-spacing:0;writing-mode:lr-tb;text-anchor:start;display:inline;fill:#000;fill-opacity:1;stroke:none;stroke-width:4.22569895;enable-background:new" id="g4998" aria-label="3" transform="matrix(0.22146631,0,0,0.22146631,142.3005,131.89229)"><path style="fill:#000;fill-opacity:1;stroke-width:4.22569895" id="path4996" d="m 101.97128,231.69508 3.07301,-3.50089 v -2.0422 h -9.530226 v 2.52843 H 101.31 l -2.800722,3.17026 v 2.08109 h 1.439258 c 1.789344,0 2.547874,0.64183 2.547874,1.67265 0,1.10862 -0.97247,1.75045 -2.547874,1.75045 -1.419809,0 -2.859067,-0.44734 -3.889888,-1.22531 l -1.225314,2.41173 c 1.322562,0.93357 3.286955,1.4587 5.192996,1.4587 3.87044,0 5.64034,-2.10053 5.64034,-4.39557 0,-2.00329 -1.24476,-3.52035 -3.69539,-3.90934 z"/></g></g></g></svg>